<svg xmlns="http://www.w3.org/2000/svg" xmlns:xlink="http://www.w3.org/1999/xlink" version="1.1" x="0px" y="0px" viewBox="0 0 32 32" enable-background="new 0 0 32 32" xml:space="preserve"><g display="none"><rect x="-111.333" y="-102.667" display="inline" fill="#000000" width="473.333" height="236"></rect></g><g display="none"><g display="inline"><g><rect x="13.649" y="4.686" transform="matrix(0.7071 -0.7071 0.7071 0.7071 -6.6274 16)" fill="#000000" width="4.703" height="22.627"></rect></g><g><g><rect x="-1.651" y="7.311" transform="matrix(0.7071 -0.7071 0.7071 0.7071 -4.0024 9.6627)" fill="#000000" width="22.627" height="4.703"></rect></g><g><rect x="4.686" y="13.649" transform="matrix(0.7071 -0.7071 0.7071 0.7071 -6.6274 16)" fill="#000000" width="22.627" height="4.703"></rect></g><g><rect x="11.024" y="19.986" transform="matrix(0.7071 -0.7071 0.7071 0.7071 -9.2524 22.3373)" fill="#000000" width="22.627" height="4.703"></rect></g></g></g></g><g display="none"><g display="inline"><path fill="#000000" d="M16,1.414l1.911,1.911l-5.63,5.63l-0.707,0.707l0.707,0.707l3.012,3.012L16,14.089l0.707-0.707l5.63-5.63    l1.911,1.911l-5.63,5.63L17.911,16l0.707,0.707l3.012,3.012l0.707,0.707l0.707-0.707l5.63-5.63L30.586,16l-5.63,5.63l-3.325,3.325    L16,30.586l-1.911-1.911l5.63-5.63l0.707-0.707l-0.707-0.707l-3.012-3.012L16,17.911l-0.707,0.707l-5.63,5.63l-1.911-1.911    l5.63-5.63L14.089,16l-0.707-0.707l-3.012-3.012l-0.707-0.707l-0.707,0.707l-5.63,5.63L1.414,16l5.63-5.63l3.325-3.325L16,1.414     M16,0L9.663,6.337L6.337,9.663L0,16l3.325,3.325l6.337-6.337L12.675,16l-6.337,6.337l3.325,3.325L16,19.325l3.012,3.012    l-6.337,6.337L16,32l6.337-6.337l3.325-3.325L32,16l-3.325-3.325l-6.337,6.337L19.325,16l6.337-6.337l-3.325-3.325L16,12.675    l-3.012-3.012l6.337-6.337L16,0L16,0z"></path></g></g><g display="none"><g display="inline"><circle fill="#000000" cx="16" cy="16" r="16"></circle></g><g display="inline"><g><polygon fill="#000000" points="13.382,28.675 19.719,22.337 16,18.618 9.663,24.956 7.044,22.337 13.382,16 9.663,12.281      3.325,18.618 0.707,16 16,0.707 18.618,3.325 12.281,9.663 16,13.382 22.337,7.044 24.956,9.663 18.618,16 22.337,19.719      28.675,13.382 31.293,16 16,31.293    "></polygon></g><g><g><path d="M16,1.414l1.911,1.911l-5.63,5.63l-0.707,0.707l0.707,0.707l3.012,3.012L16,14.089l0.707-0.707l5.63-5.63l1.911,1.911      l-5.63,5.63L17.911,16l0.707,0.707l3.012,3.012l0.707,0.707l0.707-0.707l5.63-5.63L30.586,16l-5.63,5.63l-3.325,3.325L16,30.586      l-1.911-1.911l5.63-5.63l0.707-0.707l-0.707-0.707l-3.012-3.012L16,17.911l-0.707,0.707l-5.63,5.63l-1.911-1.911l5.63-5.63      L14.089,16l-0.707-0.707l-3.012-3.012l-0.707-0.707l-0.707,0.707l-5.63,5.63L1.414,16l5.63-5.63l3.325-3.325L16,1.414 M16,0      L9.663,6.337L6.337,9.663L0,16l3.325,3.325l6.337-6.337L12.675,16l-6.337,6.337l3.325,3.325L16,19.325l3.012,3.012l-6.337,6.337      L16,32l6.337-6.337l3.325-3.325L32,16l-3.325-3.325l-6.337,6.337L19.325,16l6.337-6.337l-3.325-3.325L16,12.675l-3.012-3.012      l6.337-6.337L16,0L16,0z"></path></g></g></g></g><g><g><polygon points="9.663,12.988 12.675,16 6.337,22.337 9.663,25.663 16,19.325 19.012,22.337 12.675,28.675 16,32 22.337,25.663     25.663,22.337 32,16 28.675,12.675 22.337,19.012 19.325,16 25.663,9.663 22.337,6.337 16,12.675 12.988,9.663 19.325,3.325 16,0     9.663,6.337 6.337,9.663 0,16 3.325,19.325   "></polygon></g></g></svg>